<svg id="visual" viewBox="0 0 960 540" width="960" height="540" xmlns="http://www.w3.org/2000/svg" xmlns:xlink="http://www.w3.org/1999/xlink" version="1.1"><rect width="960" height="540" fill="#001829"></rect><g><g transform="translate(105 80)"><path d="M0 -50.4L43.6 -25.2L43.6 25.2L0 50.4L-43.6 25.2L-43.6 -25.2Z" fill="#297EA6"></path></g><g transform="translate(793 496)"><path d="M0 -45L39 -22.5L39 22.5L0 45L-39 22.5L-39 -22.5Z" fill="#297EA6"></path></g><g transform="translate(139 325)"><path d="M0 -37L32 -18.5L32 18.5L0 37L-32 18.5L-32 -18.5Z" fill="#297EA6"></path></g><g transform="translate(209 474)"><path d="M0 -37L32 -18.5L32 18.5L0 37L-32 18.5L-32 -18.5Z" fill="#297EA6"></path></g><g transform="translate(648 184)"><path d="M0 -47L40.7 -23.5L40.7 23.5L0 47L-40.7 23.5L-40.7 -23.5Z" fill="#297EA6"></path></g><g transform="translate(476 99)"><path d="M0 -38L32.9 -19L32.9 19L0 38L-32.9 19L-32.9 -19Z" fill="#297EA6"></path></g><g transform="translate(248 162)"><path d="M0 -41L35.5 -20.5L35.5 20.5L0 41L-35.5 20.5L-35.5 -20.5Z" fill="#297EA6"></path></g><g transform="translate(355 153)"><path d="M0 -37L32 -18.5L32 18.5L0 37L-32 18.5L-32 -18.5Z" fill="#297EA6"></path></g><g transform="translate(69 423)"><path d="M0 -44L38.1 -22L38.1 22L0 44L-38.1 22L-38.1 -22Z" fill="#297EA6"></path></g></g></svg>